<?xml version="1.0" standalone="no"?>
<svg xmlns:xlink="http://www.w3.org/1999/xlink" id="wave" style="transform:rotate(180deg); transition: 0.3s" viewBox="0 0 1440 170" version="1.1" xmlns="http://www.w3.org/2000/svg"><defs><linearGradient id="sw-gradient-0" x1="0" x2="0" y1="1" y2="0"><stop stop-color="rgba(255, 249, 234, 1)" offset="0%"/><stop stop-color="rgba(255, 249, 234, 1)" offset="100%"/></linearGradient></defs><path style="transform:translate(0, 0px); opacity:1" fill="url(#sw-gradient-0)" d="M0,51L24,56.7C48,62,96,74,144,73.7C192,74,240,62,288,59.5C336,57,384,62,432,62.3C480,62,528,57,576,53.8C624,51,672,51,720,62.3C768,74,816,96,864,113.3C912,130,960,142,1008,124.7C1056,108,1104,62,1152,48.2C1200,34,1248,51,1296,73.7C1344,96,1392,125,1440,136C1488,147,1536,142,1584,127.5C1632,113,1680,91,1728,79.3C1776,68,1824,68,1872,82.2C1920,96,1968,125,2016,119C2064,113,2112,74,2160,51C2208,28,2256,23,2304,31.2C2352,40,2400,62,2448,68C2496,74,2544,62,2592,59.5C2640,57,2688,62,2736,70.8C2784,79,2832,91,2880,104.8C2928,119,2976,136,3024,144.5C3072,153,3120,153,3168,136C3216,119,3264,85,3312,76.5C3360,68,3408,85,3432,93.5L3456,102L3456,170L3432,170C3408,170,3360,170,3312,170C3264,170,3216,170,3168,170C3120,170,3072,170,3024,170C2976,170,2928,170,2880,170C2832,170,2784,170,2736,170C2688,170,2640,170,2592,170C2544,170,2496,170,2448,170C2400,170,2352,170,2304,170C2256,170,2208,170,2160,170C2112,170,2064,170,2016,170C1968,170,1920,170,1872,170C1824,170,1776,170,1728,170C1680,170,1632,170,1584,170C1536,170,1488,170,1440,170C1392,170,1344,170,1296,170C1248,170,1200,170,1152,170C1104,170,1056,170,1008,170C960,170,912,170,864,170C816,170,768,170,720,170C672,170,624,170,576,170C528,170,480,170,432,170C384,170,336,170,288,170C240,170,192,170,144,170C96,170,48,170,24,170L0,170Z"/></svg>